<svg width="128" height="128" viewBox="0 0 128 128" fill="none" xmlns="http://www.w3.org/2000/svg">
  <!-- Background circle -->
  <circle cx="64" cy="64" r="60" fill="#FAFAF9" stroke="#9F1239" stroke-width="2"/>
  
  <!-- Grid of components/blocks -->
  <rect x="30" y="30" width="24" height="24" rx="4" fill="#9F1239" opacity="0.8"/>
  <rect x="62" y="30" width="24" height="24" rx="4" fill="#E11D48" opacity="0.7"/>
  <rect x="94" y="30" width="4" height="24" rx="2" fill="#F43F5E" opacity="0.6"/>
  
  <rect x="30" y="62" width="24" height="24" rx="4" fill="#E11D48" opacity="0.7"/>
  <rect x="62" y="62" width="24" height="24" rx="4" fill="#F43F5E" opacity="0.6"/>
  <rect x="94" y="62" width="4" height="24" rx="2" fill="#FECDD3" opacity="0.8"/>
  
  <rect x="30" y="94" width="24" height="4" rx="2" fill="#F43F5E" opacity="0.6"/>
  <rect x="62" y="94" width="24" height="4" rx="2" fill="#FECDD3" opacity="0.8"/>
  <circle cx="96" cy="96" r="2" fill="#9F1239"/>
  
  <!-- Decorative sparkle -->
  <path d="M100 20 L102 22 L104 20 L102 18 Z" fill="#9F1239" opacity="0.5"/>
  <path d="M20 100 L22 102 L24 100 L22 98 Z" fill="#9F1239" opacity="0.5"/>
</svg>
